#!OML:ASF H:\charlestonDancing\Project 1\Capture day 1\Session 1\femaleDancer.ASF
:FULLY-SPECIFIED
:DEGREES
239
root -1.72557 17.6731 5.44212 549.111 -89.2901 -548.393
lowerback 23.992 -5.606 -0.544555
upperback 8.15226 -8.28947 -4.02128
thorax -4.81926 -4.29018 -1.72021
lowerneck 4.24213 12.4606 8.72731
upperneck 0.112364 16.9648 -9.02171
head 0.964802 8.57112 -4.31423
rclavicle 8.34896e-014 -1.43125e-014
rhumerus -41.989 -20.904 -54.5484
rradius 79.4151
rwrist -48.931
rhand -6.94765 -26.6297
rfingers 7.12502
rthumb 18.9212 -55.7294
lclavicle 8.34896e-014 -1.43125e-014
lhumerus 16.9215 1.81693 71.0024
lradius 76.748
lwrist -4.25288
lhand -29.851 11.1375
lfingers 7.12502
lthumb -3.17359 41.0937
rfemur -58.7169 14.4313 15.267
rtibia 76.1678
rfoot -9.72676 -1.04017
rtoes -22.2644
lfemur -21.0017 -3.12674 -26.2085
ltibia 39.9482
lfoot -9.84921 -4.63001
ltoes -10.7496
240
root -1.69875 17.7295 5.45699 505.188 -89.0552 -504.048
lowerback 24.0266 -5.89765 -0.544233
upperback 8.14562 -8.65686 -3.96909
thorax -4.84844 -4.46655 -1.55705
lowerneck 4.22276 12.3644 8.54342
upperneck -0.384404 16.8099 -9.16309
head 0.786321 8.49737 -4.3574
rclavicle 2.94201e-014 -3.02153e-014
rhumerus -40.2768 -20.2035 -55.6512
rradius 78.1015
rwrist -49.0187
rhand -6.66124 -26.4244
rfingers 7.12502
rthumb 19.1966 -55.497
lclavicle 2.94201e-014 -3.02153e-014
lhumerus 19.3722 1.11495 70.6801
lradius 74.7213
lwrist -4.50899
lhand -28.8463 10.6499
lfingers 7.12502
lthumb -2.20331 40.6183
rfemur -58.6358 14.8827 15.4601
rtibia 70.1994
rfoot -9.95332 -1.91165
rtoes -21.3354
lfemur -21.2961 -3.05243 -25.6121
ltibia 39.5024
lfoot -9.73083 -4.0101
ltoes -9.28839
241
root -1.67452 17.7545 5.47857 483.209 -88.2878 -481.641
lowerback 23.9835 -6.14018 -0.182173
upperback 8.02063 -8.86342 -3.83865
thorax -5.00097 -4.55695 -1.5532
lowerneck 4.27798 12.0846 8.17841
upperneck -0.695858 16.4079 -8.90456
head 0.576294 8.29561 -4.24598
rclavicle -5.48646e-014 -2.70347e-014
rhumerus -39.2798 -19.4607 -56.2424
rradius 77.1428
rwrist -49.3003
rhand -6.33084 -26.1577
rfingers 7.12502
rthumb 19.5143 -55.1984
lclavicle -5.48646e-014 -2.70347e-014
lhumerus 21.5258 0.247577 70.5362
lradius 72.5127
lwrist -5.38427
lhand -27.4641 9.76533
lfingers 7.12502
lthumb -0.868373 39.7433
rfemur -58.109 15.2055 15.9382
rtibia 63.5286
rfoot -10.719 -2.93994
rtoes -20.0037
lfemur -21.7536 -2.86636 -24.7909
ltibia 39.308
lfoot -9.99955 -3.53954
ltoes -8.72008
242
root -1.658 17.7425 5.50647 481.589 -87.3554 -479.701
lowerback 23.9279 -6.20113 0.279155
upperback 7.83067 -8.81705 -3.74421
thorax -5.22941 -4.52358 -1.71046
lowerneck 4.89514 11.3916 7.69459
upperneck -1.39218 15.4664 -8.43448
head 0.0691076 7.83191 -4.12254
rclavicle 1.98785e-014 -5.40694e-014
rhumerus -38.9127 -18.7455 -56.3334
rradius 76.5275
rwrist -49.6673
rhand -5.9402 -25.9694
rfingers 7.12502
rthumb 19.8898 -54.9716
lclavicle 1.98785e-014 -5.40694e-014
lhumerus 23.4299 -0.924093 70.5663
lradius 70.1591
lwrist -6.55654
lhand -26.0932 8.79262
lfingers 7.12502
lthumb 0.455761 38.7719
rfemur -57.2277 15.4827 16.4466
rtibia 56.4369
rfoot -11.218 -3.64901
rtoes -20.3683
lfemur -22.1335 -2.87717 -24.0415
ltibia 39.3335
lfoot -10.9808 -3.00281
ltoes -11.2238
243
root -1.6508 17.7067 5.52948 476.875 -86.8502 -474.709
lowerback 23.6675 -6.2986 0.652124
upperback 7.64799 -8.83303 -3.65534
thorax -5.33888 -4.52207 -1.82923
lowerneck 5.21814 10.4841 6.72477
upperneck -1.86268 14.2092 -7.43723
head -0.404791 7.19512 -3.70532
rclavicle 1.28812e-013 -6.99722e-014
rhumerus -39.0146 -17.9665 -56.0159
rradius 76.3
rwrist -50.2078
rhand -5.59936 -25.9592
rfingers 7.12502
rthumb 20.2175 -54.927
lclavicle 1.28812e-013 -6.99722e-014
lhumerus 24.9068 -2.4856 70.5815
lradius 67.8256
lwrist -7.40302
lhand -25.4439 8.26931
lfingers 7.12502
lthumb 1.0828 38.2463
rfemur -56.0876 15.3563 16.716
rtibia 49.2242
rfoot -12.3032 -3.75356
rtoes -19.224
lfemur -22.4893 -3.59799 -23.4833
ltibia 39.604
lfoot -12.1536 -2.67807
ltoes -13.7989
244
root -1.63658 17.6545 5.55741 473.642 -86.5242 -471.303
lowerback 23.4608 -6.34569 1.04196
upperback 7.48719 -8.78904 -3.61644
thorax -5.45808 -4.49348 -2.024
lowerneck 5.22279 9.39837 5.61206
upperneck -2.03681 12.7091 -6.19287
head -0.736681 6.42714 -3.13604
rclavicle -5.1684e-014 -4.77083e-014
rhumerus -39.4375 -17.3644 -55.4805
rradius 76.4506
rwrist -50.8127
rhand -5.49806 -26.4387
rfingers 7.12502
rthumb 20.3148 -55.3962
lclavicle -5.1684e-014 -4.77083e-014
lhumerus 25.8737 -4.44792 70.5293
lradius 65.7511
lwrist -7.72151
lhand -25.6485 8.12391
lfingers 7.12502
lthumb 0.88519 38.1018
rfemur -54.8818 14.9441 16.9385
rtibia 42.4404
rfoot -12.3747 -2.92619
rtoes -23.6099
lfemur -22.9218 -4.20968 -23.1406
ltibia 40.077
lfoot -12.8811 -2.45665
ltoes -14.937
245
root -1.62116 17.5838 5.5854 471.116 -86.314 -468.763
lowerback 23.3525 -6.3069 1.43951
upperback 7.46287 -8.6454 -3.60441
thorax -5.47508 -4.42244 -2.28048
lowerneck 4.64624 8.27311 4.57488
upperneck -1.82321 11.1586 -4.88164
head -0.802425 5.62781 -2.49747
rclavicle -4.05521e-014 3.65764e-014
rhumerus -40.0353 -17.1258 -54.791
rradius 76.91
rwrist -51.4515
rhand -5.60196 -27.1568
rfingers 7.12502
rthumb 20.215 -56.125
lclavicle -4.05521e-014 3.65764e-014
lhumerus 26.3558 -6.57468 70.5571
lradius 64.165
lwrist -7.97987
lhand -26.0383 7.98397
lfingers 7.12502
lthumb 0.508749 37.9631
rfemur -53.8386 14.2878 17.2612
rtibia 36.7462
rfoot -12.9996 -1.49712
rtoes -25.1107
lfemur -23.4087 -4.59386 -22.9856
ltibia 40.7805
lfoot -13.3157 -2.25985
ltoes -15.1087
246
root -1.59728 17.5225 5.60568 471.185 -86.2673 -469.04
lowerback 23.5456 -6.13354 1.52325
upperback 7.41887 -8.3998 -3.56474
thorax -5.60956 -4.3026 -2.33443
lowerneck 4.04089 7.13422 3.64463
upperneck -1.40011 9.60132 -3.77473
head -0.741577 4.83131 -1.93726
rclavicle -4.05521e-014 6.52014e-014
rhumerus -41.0034 -16.8959 -53.8574
rradius 77.6188
rwrist -52.1137
rhand -5.71651 -27.5377
rfingers 7.12502
rthumb 20.1049 -56.5174
lclavicle -4.05521e-014 6.52014e-014
lhumerus 25.9018 -8.60047 70.8179
lradius 63.2105
lwrist -8.56673
lhand -26.0227 7.63453
lfingers 7.12502
lthumb 0.523843 37.6136
rfemur -52.0832 13.5557 17.7591
rtibia 30.9947
rfoot -11.757 0.804809
rtoes -26.1558
lfemur -23.7763 -4.95531 -23.0388
ltibia 41.6871
lfoot -13.8458 -2.02044
ltoes -14.5852
247
root -1.57425 17.453 5.61891 475.914 -86.6496 -474.117
lowerback 24.009 -5.84822 0.973244
upperback 7.28916 -8.15997 -3.5643
thorax -5.89774 -4.18323 -2.04926
lowerneck 3.59652 6.00095 2.73465
upperneck -0.865727 8.05749 -2.92215
head -0.629142 4.04839 -1.47181
rclavicle 1.90833e-014 -1.27222e-014
rhumerus -42.1338 -16.6741 -52.7919
rradius 78.3409
rwrist -52.6725
rhand -5.61702 -27.6795
rfingers 7.12502
rthumb 20.2005 -56.6492
lclavicle 1.90833e-014 -1.27222e-014
lhumerus 24.3247 -10.3501 71.3328
lradius 63.0204
lwrist -9.09557
lhand -25.3946 7.17034
lfingers 7.12502
lthumb 1.13044 37.1471
rfemur -51.42 13.1745 17.5807
rtibia 29.2674
rfoot -12.0791 1.89107
rtoes -25.8764
lfemur -23.9826 -5.11439 -23.6521
ltibia 42.6227
lfoot -14.3702 -1.85295
ltoes -14.8568
248
root -1.57425 17.453 5.61891 475.914 -86.6496 -474.117
lowerback 24.009 -5.84822 0.973244
upperback 7.28916 -8.15997 -3.5643
thorax -5.89774 -4.18323 -2.04926
lowerneck 3.59652 6.00095 2.73465
upperneck -0.865727 8.05749 -2.92215
head -0.629142 4.04839 -1.47181
rclavicle 1.90833e-014 -1.27222e-014
rhumerus -42.1338 -16.6741 -52.7919
rradius 78.3409
rwrist -52.6725
rhand -5.61702 -27.6795
rfingers 7.12502
rthumb 20.2005 -56.6492
lclavicle 1.90833e-014 -1.27222e-014
lhumerus 24.3247 -10.3501 71.3328
lradius 63.0204
lwrist -9.09557
lhand -25.3946 7.17034
lfingers 7.12502
lthumb 1.13044 37.1471
rfemur -51.42 13.1745 17.5807
rtibia 29.2674
rfoot -12.0791 1.89107
rtoes -25.8764
lfemur -23.9826 -5.11439 -23.6521
ltibia 42.6227
lfoot -14.3702 -1.85295
ltoes -14.8568
249
root -1.57425 17.453 5.61891 475.914 -86.6496 -474.117
lowerback 24.009 -5.84822 0.973244
upperback 7.28916 -8.15997 -3.5643
thorax -5.89774 -4.18323 -2.04926
lowerneck 3.59652 6.00095 2.73465
upperneck -0.865727 8.05749 -2.92215
head -0.629142 4.04839 -1.47181
rclavicle 1.90833e-014 -1.27222e-014
rhumerus -42.1338 -16.6741 -52.7919
rradius 78.3409
rwrist -52.6725
rhand -5.61702 -27.6795
rfingers 7.12502
rthumb 20.2005 -56.6492
lclavicle 1.90833e-014 -1.27222e-014
lhumerus 24.3247 -10.3501 71.3328
lradius 63.0204
lwrist -9.09557
lhand -25.3946 7.17034
lfingers 7.12502
lthumb 1.13044 37.1471
rfemur -51.42 13.1745 17.5807
rtibia 29.2674
rfoot -12.0791 1.89107
rtoes -25.8764
lfemur -23.9826 -5.11439 -23.6521
ltibia 42.6227
lfoot -14.3702 -1.85295
ltoes -14.8568
250
root -1.57425 17.453 5.61891 475.914 -86.6496 -474.117
lowerback 24.009 -5.84822 0.973244
upperback 7.28916 -8.15997 -3.5643
thorax -5.89774 -4.18323 -2.04926
lowerneck 3.59652 6.00095 2.73465
upperneck -0.865727 8.05749 -2.92215
head -0.629142 4.04839 -1.47181
rclavicle 1.90833e-014 -1.27222e-014
rhumerus -42.1338 -16.6741 -52.7919
rradius 78.3409
rwrist -52.6725
rhand -5.61702 -27.6795
rfingers 7.12502
rthumb 20.2005 -56.6492
lclavicle 1.90833e-014 -1.27222e-014
lhumerus 24.3247 -10.3501 71.3328
lradius 63.0204
lwrist -9.09557
lhand -25.3946 7.17034
lfingers 7.12502
lthumb 1.13044 37.1471
rfemur -51.42 13.1745 17.5807
rtibia 29.2674
rfoot -12.0791 1.89107
rtoes -25.8764
lfemur -23.9826 -5.11439 -23.6521
ltibia 42.6227
lfoot -14.3702 -1.85295
ltoes -14.8568
251
root -1.57425 17.453 5.61891 475.914 -86.6496 -474.117
lowerback 24.009 -5.84822 0.973244
upperback 7.28916 -8.15997 -3.5643
thorax -5.89774 -4.18323 -2.04926
lowerneck 3.59652 6.00095 2.73465
upperneck -0.865727 8.05749 -2.92215
head -0.629142 4.04839 -1.47181
rclavicle 1.90833e-014 -1.27222e-014
rhumerus -42.1338 -16.6741 -52.7919
rradius 78.3409
rwrist -52.6725
rhand -5.61702 -27.6795
rfingers 7.12502
rthumb 20.2005 -56.6492
lclavicle 1.90833e-014 -1.27222e-014
lhumerus 24.3247 -10.3501 71.3328
lradius 63.0204
lwrist -9.09557
lhand -25.3946 7.17034
lfingers 7.12502
lthumb 1.13044 37.1471
rfemur -51.42 13.1745 17.5807
rtibia 29.2674
rfoot -12.0791 1.89107
rtoes -25.8764
lfemur -23.9826 -5.11439 -23.6521
ltibia 42.6227
lfoot -14.3702 -1.85295
ltoes -14.8568
252
root -1.57425 17.453 5.61891 475.914 -86.6496 -474.117
lowerback 24.009 -5.84822 0.973244
upperback 7.28916 -8.15997 -3.5643
thorax -5.89774 -4.18323 -2.04926
lowerneck 3.59652 6.00095 2.73465
upperneck -0.865727 8.05749 -2.92215
head -0.629142 4.04839 -1.47181
rclavicle 1.90833e-014 -1.27222e-014
rhumerus -42.1338 -16.6741 -52.7919
rradius 78.3409
rwrist -52.6725
rhand -5.61702 -27.6795
rfingers 7.12502
rthumb 20.2005 -56.6492
lclavicle 1.90833e-014 -1.27222e-014
lhumerus 24.3247 -10.3501 71.3328
lradius 63.0204
lwrist -9.09557
lhand -25.3946 7.17034
lfingers 7.12502
lthumb 1.13044 37.1471
rfemur -51.42 13.1745 17.5807
rtibia 29.2674
rfoot -12.0791 1.89107
rtoes -25.8764
lfemur -23.9826 -5.11439 -23.6521
ltibia 42.6227
lfoot -14.3702 -1.85295
ltoes -14.8568
